<?xml version="1.0" encoding="utf-8"?>
<!-- Svg Vector Icons : http://www.onlinewebfonts.com/icon -->
<!DOCTYPE svg PUBLIC "-//W3C//DTD SVG 1.1//EN" "http://www.w3.org/Graphics/SVG/1.1/DTD/svg11.dtd">
<svg version="1.1" xmlns="http://www.w3.org/2000/svg" xmlns:xlink="http://www.w3.org/1999/xlink" x="0px" y="0px" viewBox="0 0 256 256" enable-background="new 0 0 256 256" xml:space="preserve">
<metadata> Svg Vector Icons : http://www.onlinewebfonts.com/icon </metadata>
<g><g><g><g><path fill="#000000" d="M243.9,94.6c1.8-4.5,2.4-9.7,1.9-14.4c-0.6-5.6-2.2-11.1-5.4-15.8l-13.9,8.1l2,3.5c0.6,1.5,1,3.1,1.3,4.7c0.1,1.6,0.1,3.3,0,4.9c-0.3,1.5-0.7,3-1.2,4.4c-0.7,1.4-1.4,2.7-2.3,3.9c-0.6,0.7-1.3,1.4-2,2.1c-0.1-0.1-0.1-0.3-0.2-0.4c-5.3-10.4-13-19.8-22.7-27.7c-19.6-16.2-45.6-25-73.2-25c-8,0-15.9,0.8-23.6,2.3c-5.7-6-13.1-10.5-22.2-13.4c-7.7-2.5-16.4-3.7-26-3.7c-8.5,0-14.5,1-14.8,1.1l-9.3,1.6l14.4,47.2c-3.8,4.5-7.1,9.2-9.8,14.2L10,99.5v61.1l26.9,7.6c5.6,10.3,13.5,19.5,23.2,27l-4.4,33h59.3l7.6-10.9c1.8,0.1,3.7,0.1,5.5,0.1c7.8,0,15.6-0.7,23.1-2.1l8.5,12.9h59.4l-6.2-47.2c5.7-6.7,10.3-14,13.6-21.8c3.9-9.3,5.9-19.1,5.9-29.1c0-6.3-0.8-12.4-2.3-18.4c2-1.2,3.8-2.7,5.5-4.3C239.4,103.7,242,99.3,243.9,94.6z M198.1,172.5l-2.7,2.9l4.8,36.1h-31.5l-9.9-15.1l-5.7,1.4c-8.1,1.9-16.5,2.9-25,2.9c-3,0-6-0.1-8.9-0.4l-4.8-0.4l-8.1,11.5H74.8l3.2-24l-4.1-2.9c-10.3-7.2-18.5-16.6-23.6-27.1l-1.6-3.3L26.6,148v-35.9l21.9-6.2l1.6-3.3c3-6.2,7-11.9,11.9-17.1l3.3-3.5L54,44.5c0.8,0,1.6,0,2.4,0c7.7,0,14.9,1,20.9,2.9c7.7,2.4,13.5,6.4,17.3,11.7l3.3,4.6l5.4-1.3c7.9-2,16.3-2.9,24.8-2.9c48.3,0,87.7,31.7,87.7,70.7C215.8,145.5,209.7,160.2,198.1,172.5z"/><path fill="#000000" d="M70.7 103.6a8.5 8.5 0 1 0 17 0a8.5 8.5 0 1 0 -17 0z"/><path fill="#000000" d="M116.5,69.8l3.7,16.2c0,0,6-1.3,14.3-1c7.6,0.3,18.7,2.1,28.2,9l9.8-13.5C148.1,63,117.8,69.5,116.5,69.8z"/></g></g><g></g><g></g><g></g><g></g><g></g><g></g><g></g><g></g><g></g><g></g><g></g><g></g><g></g><g></g><g></g></g></g>
</svg>